<svg id="Capa_1" enable-background="new 0 0 512 512" height="512" viewBox="0 0 512 512" width="512" xmlns="http://www.w3.org/2000/svg"><g><path d="m472.192 146.295h-63.346v-118.6c0-9.993-8.129-18.123-18.123-18.123h-269.446c-9.993 0-18.123 8.129-18.123 18.123v147.498h-63.346c-6.016 0-10.911 4.894-10.911 10.911l-.537 109.25c-7.991-4.203-13.403-12.621-13.403-22.014v-87.236c0-13.702 11.148-24.851 24.851-24.851h34.858c4.131 0 7.479-3.348 7.479-7.479s-3.348-7.479-7.479-7.479h-34.858c-21.95 0-39.808 17.858-39.808 39.808v87.236c0 17.615 11.864 33.129 28.361 38.123v154.59c0 20.058 16.318 36.377 36.377 36.377h53.614c4.131 0 7.479-3.348 7.479-7.479s-3.348-7.479-7.479-7.479h-53.614c-11.81 0-21.419-9.609-21.419-21.419v-24.125h425.362v24.125c0 11.81-9.609 21.419-21.419 21.419h-293.798c-4.131 0-7.479 3.348-7.479 7.479s3.348 7.479 7.479 7.479h293.798c20.058 0 36.377-16.318 36.377-36.377v-154.59c16.605-5.003 28.361-20.56 28.361-38.123v-87.236c0-21.95-17.858-39.808-39.808-39.808zm-350.915-121.765h269.446c1.745 0 3.165 1.42 3.165 3.165v177.244h-275.776v-177.244c0-1.745 1.42-3.165 3.165-3.165zm273.809 382.742c0-6.569 5.344-11.915 11.914-11.915s11.915 5.345 11.915 11.915c0 6.569-5.345 11.914-11.915 11.914s-11.914-5.345-11.914-11.914zm11.913-26.872c-14.816 0-26.871 12.055-26.871 26.872 0 7.775 3.323 14.785 8.618 19.696h-38.993c5.296-4.911 8.618-11.922 8.618-19.696 0-14.817-12.055-26.872-26.871-26.872-14.817 0-26.872 12.055-26.872 26.872 0 7.775 3.323 14.785 8.618 19.696h-38.992c5.296-4.911 8.618-11.922 8.618-19.696 0-14.817-12.055-26.872-26.872-26.872s-26.872 12.055-26.872 26.872c0 7.775 3.323 14.785 8.618 19.696h-38.992c5.296-4.911 8.618-11.922 8.618-19.696 0-14.817-12.055-26.872-26.872-26.872-14.816 0-26.871 12.055-26.871 26.872 0 7.775 3.323 14.785 8.618 19.696h-38.993c5.296-4.911 8.618-11.922 8.618-19.696 0-14.817-12.055-26.872-26.871-26.872-14.817 0-26.872 12.055-26.872 26.872 0 7.775 3.323 14.785 8.618 19.696h-43.428v-154.134c0-11.81 9.609-21.419 21.419-21.419h382.525c11.81 0 21.419 9.609 21.419 21.419v154.134h-43.428c5.296-4.911 8.618-11.922 8.618-19.696 0-14.817-12.055-26.872-26.873-26.872zm-87.413 26.872c0-6.569 5.345-11.915 11.915-11.915 6.569 0 11.914 5.345 11.914 11.915 0 6.569-5.344 11.914-11.914 11.914s-11.915-5.345-11.915-11.914zm-75.501 0c0-6.569 5.345-11.915 11.915-11.915 6.569 0 11.915 5.345 11.915 11.915 0 6.569-5.345 11.914-11.915 11.914-6.569 0-11.915-5.345-11.915-11.914zm-75.499 0c0-6.569 5.344-11.915 11.914-11.915 6.569 0 11.915 5.345 11.915 11.915 0 6.569-5.345 11.914-11.915 11.914-6.569 0-11.914-5.345-11.914-11.914zm-75.5 0c0-6.569 5.345-11.915 11.915-11.915s11.914 5.345 11.914 11.915c0 6.569-5.344 11.914-11.914 11.914s-11.915-5.345-11.915-11.914zm-28.348-170.814c-7.767 0-14.967 2.455-20.882 6.618v-23.179h59.299v16.561zm403.407 6.618c-5.915-4.163-13.115-6.618-20.882-6.618h-38.417v-16.561h59.299zm-74.257-6.618h-275.776v-16.561h275.776zm-290.734-46.308v14.789h-59.299v-14.789zm393.888 83.189c0 9.376-5.368 17.832-13.403 22.04l-.537-109.276c0-6.016-4.894-10.911-10.911-10.911h-33.64c-4.131 0-7.479 3.348-7.479 7.479s3.348 7.479 7.479 7.479h29.593v14.789h-59.299v-43.687h63.346c13.702 0 24.851 11.148 24.851 24.851z"/><path d="m231.658 66.673h49.286c4.131 0 7.479-3.348 7.479-7.479s-3.348-7.479-7.479-7.479h-49.286c-4.131 0-7.479 3.348-7.479 7.479s3.348 7.479 7.479 7.479z"/><path d="m169.408 109.146h173.785c4.131 0 7.479-3.348 7.479-7.479s-3.348-7.479-7.479-7.479h-173.785c-4.131 0-7.479 3.348-7.479 7.479s3.348 7.479 7.479 7.479z"/><path d="m169.408 139.885h173.785c4.131 0 7.479-3.348 7.479-7.479s-3.348-7.479-7.479-7.479h-173.785c-4.131 0-7.479 3.348-7.479 7.479s3.348 7.479 7.479 7.479z"/><path d="m169.408 169.534h31.6c4.131 0 7.479-3.348 7.479-7.479s-3.348-7.479-7.479-7.479h-31.6c-4.131 0-7.479 3.348-7.479 7.479s3.348 7.479 7.479 7.479z"/><path d="m131.872 305.632c0-14.817-12.055-26.872-26.871-26.872-14.817 0-26.872 12.055-26.872 26.872 0 14.816 12.055 26.871 26.872 26.871 14.816 0 26.871-12.055 26.871-26.871zm-26.871 11.914c-6.569 0-11.915-5.344-11.915-11.914 0-6.569 5.345-11.915 11.915-11.915s11.914 5.345 11.914 11.915c-.001 6.569-5.345 11.914-11.914 11.914z"/><path d="m207.372 305.632c0-14.817-12.055-26.872-26.872-26.872-14.816 0-26.871 12.055-26.871 26.872 0 14.816 12.055 26.871 26.871 26.871 14.817 0 26.872-12.055 26.872-26.871zm-26.872 11.914c-6.569 0-11.914-5.344-11.914-11.914 0-6.569 5.344-11.915 11.914-11.915 6.569 0 11.915 5.345 11.915 11.915-.001 6.569-5.346 11.914-11.915 11.914z"/><path d="m282.872 305.632c0-14.817-12.055-26.872-26.872-26.872s-26.872 12.055-26.872 26.872c0 14.816 12.055 26.871 26.872 26.871s26.872-12.055 26.872-26.871zm-26.872 11.914c-6.569 0-11.915-5.344-11.915-11.914 0-6.569 5.345-11.915 11.915-11.915 6.569 0 11.915 5.345 11.915 11.915 0 6.569-5.346 11.914-11.915 11.914z"/><path d="m358.371 305.632c0-14.817-12.055-26.872-26.871-26.872-14.817 0-26.872 12.055-26.872 26.872 0 14.816 12.055 26.871 26.872 26.871s26.871-12.055 26.871-26.871zm-26.871 11.914c-6.569 0-11.915-5.344-11.915-11.914 0-6.569 5.345-11.915 11.915-11.915 6.569 0 11.914 5.345 11.914 11.915 0 6.569-5.345 11.914-11.914 11.914z"/><path d="m406.999 278.76c-14.816 0-26.871 12.055-26.871 26.872 0 14.816 12.055 26.871 26.871 26.871 14.817 0 26.872-12.055 26.872-26.871.001-14.817-12.054-26.872-26.872-26.872zm0 38.786c-6.569 0-11.914-5.344-11.914-11.914 0-6.569 5.344-11.915 11.914-11.915s11.915 5.345 11.915 11.915c0 6.569-5.345 11.914-11.915 11.914z"/><path d="m142.75 329.58c-14.817 0-26.872 12.055-26.872 26.872 0 14.816 12.055 26.871 26.872 26.871s26.872-12.055 26.872-26.871c0-14.817-12.054-26.872-26.872-26.872zm0 38.786c-6.569 0-11.915-5.344-11.915-11.914s5.345-11.915 11.915-11.915c6.569 0 11.915 5.345 11.915 11.915s-5.345 11.914-11.915 11.914z"/><path d="m218.25 329.58c-14.817 0-26.872 12.055-26.872 26.872 0 14.816 12.055 26.871 26.872 26.871 14.816 0 26.871-12.055 26.871-26.871.001-14.817-12.054-26.872-26.871-26.872zm0 38.786c-6.569 0-11.915-5.344-11.915-11.914s5.345-11.915 11.915-11.915c6.569 0 11.914 5.345 11.914 11.915s-5.344 11.914-11.914 11.914z"/><path d="m293.75 329.58c-14.816 0-26.871 12.055-26.871 26.872 0 14.816 12.055 26.871 26.871 26.871 14.817 0 26.872-12.055 26.872-26.871 0-14.817-12.055-26.872-26.872-26.872zm0 38.786c-6.569 0-11.914-5.344-11.914-11.914s5.344-11.915 11.914-11.915c6.569 0 11.915 5.345 11.915 11.915s-5.346 11.914-11.915 11.914z"/><path d="m369.25 329.58c-14.817 0-26.872 12.055-26.872 26.872 0 14.816 12.055 26.871 26.872 26.871s26.872-12.055 26.872-26.871c0-14.817-12.055-26.872-26.872-26.872zm0 38.786c-6.569 0-11.915-5.344-11.915-11.914s5.345-11.915 11.915-11.915 11.915 5.345 11.915 11.915-5.346 11.914-11.915 11.914z"/></g></svg>